<svg width="19" height="19" viewBox="0 0 19 19" fill="none" xmlns="http://www.w3.org/2000/svg">
<path d="M8.98619 7.00747C9.29623 7.00747 9.54757 6.75613 9.54757 6.44609C9.54757 6.13604 9.29623 5.8847 8.98619 5.8847C8.67614 5.8847 8.4248 6.13604 8.4248 6.44609C8.4248 6.75613 8.67614 7.00747 8.98619 7.00747Z" fill="#3ACBBA"/>
<path d="M10.2014 12.2804H9.39947V7.90967H8.19651C8.09016 7.90967 7.98817 7.95191 7.91297 8.02711C7.83777 8.10231 7.79552 8.20431 7.79552 8.31066C7.79552 8.417 7.83777 8.519 7.91297 8.5942C7.98817 8.6694 8.09016 8.71164 8.19651 8.71164H8.59749V12.2804H7.79552C7.68917 12.2804 7.58718 12.3227 7.51198 12.3979C7.43678 12.4731 7.39453 12.5751 7.39453 12.6814C7.39453 12.7878 7.43678 12.8898 7.51198 12.965C7.58718 13.0402 7.68917 13.0824 7.79552 13.0824H10.2014C10.3078 13.0824 10.4098 13.0402 10.485 12.965C10.5602 12.8898 10.6024 12.7878 10.6024 12.6814C10.6024 12.5751 10.5602 12.4731 10.485 12.3979C10.4098 12.3227 10.3078 12.2804 10.2014 12.2804Z" fill="#3ACBBA"/>
<path d="M8.99833 15.8893C7.7294 15.8893 6.48897 15.5131 5.4339 14.8081C4.37882 14.1031 3.55649 13.1011 3.0709 11.9288C2.5853 10.7564 2.45825 9.46643 2.7058 8.22188C2.95336 6.97734 3.5644 5.83415 4.46167 4.93689C5.35893 4.03962 6.50212 3.42858 7.74666 3.18102C8.99121 2.93346 10.2812 3.06052 11.4535 3.54612C12.6259 4.03171 13.6279 4.85404 14.3329 5.90912C15.0378 6.96419 15.4141 8.20462 15.4141 9.47355C15.4141 11.1751 14.7382 12.807 13.535 14.0102C12.3318 15.2134 10.6999 15.8893 8.99833 15.8893ZM8.99833 3.85972C7.88802 3.85972 6.80264 4.18896 5.87945 4.80582C4.95626 5.42267 4.23672 6.29943 3.81183 7.32523C3.38693 8.35102 3.27576 9.47977 3.49237 10.5687C3.70898 11.6577 4.24364 12.658 5.02875 13.4431C5.81386 14.2282 6.81415 14.7629 7.90312 14.9795C8.9921 15.1961 10.1209 15.0849 11.1466 14.66C12.1724 14.2351 13.0492 13.5156 13.6661 12.5924C14.2829 11.6692 14.6122 10.5839 14.6122 9.47355C14.6122 7.98467 14.0207 6.55677 12.9679 5.50397C11.9151 4.45117 10.4872 3.85972 8.99833 3.85972Z" fill="#3ACBBA"/>
</svg>
