<svg width="12" height="12" viewBox="0 0 12 12" fill="none" xmlns="http://www.w3.org/2000/svg">
<g clip-path="url(#clip0_1027_5316)">
<path d="M5.95448 1.01112C8.57192 1.01112 10.7135 3.15266 10.7135 5.77009C10.7135 8.38753 8.57192 10.5291 5.95448 10.5291C3.33704 10.5291 1.19551 8.38753 1.19551 5.77009C1.19551 3.15266 3.33704 1.01112 5.95448 1.01112ZM5.95448 0.217957C2.90081 0.217957 0.402344 2.71642 0.402344 5.77009C0.402344 8.82377 2.90081 11.3222 5.95448 11.3222C9.00816 11.3222 11.5066 8.82377 11.5066 5.77009C11.5066 2.71642 9.00816 0.217957 5.95448 0.217957Z" fill="#A6A6A6"/>
<path d="M9.12704 5.72049C9.12704 5.52884 8.97168 5.37348 8.78003 5.37348H6.69798C6.50633 5.37348 6.35097 5.21812 6.35097 5.02647V2.94442C6.35097 2.75277 6.19561 2.59741 6.00396 2.59741H5.90481C5.71317 2.59741 5.55781 2.75277 5.55781 2.94442V5.02647C5.55781 5.21812 5.40245 5.37348 5.2108 5.37348H3.12875C2.9371 5.37348 2.78174 5.52884 2.78174 5.72049V5.81963C2.78174 6.01128 2.9371 6.16664 3.12875 6.16664H5.2108C5.40245 6.16664 5.55781 6.322 5.55781 6.51365V8.5957C5.55781 8.78735 5.71317 8.94271 5.90481 8.94271H6.00396C6.19561 8.94271 6.35097 8.78735 6.35097 8.5957V6.51365C6.35097 6.322 6.50633 6.16664 6.69798 6.16664H8.78003C8.97168 6.16664 9.12704 6.01128 9.12704 5.81963V5.72049Z" fill="#A6A6A6"/>
</g>
<defs>
<clipPath id="clip0_1027_5316">
<rect width="11.1043" height="11.1043" fill="white" transform="translate(0.402344 0.217957)"/>
</clipPath>
</defs>
</svg>
