<svg width="12" height="12" viewBox="0 0 12 12" fill="none" xmlns="http://www.w3.org/2000/svg">
<g id="solar:calendar-linear" clip-path="url(#clip0_2576_3061)">
<g id="Group">
<path id="Vector" d="M1 6C1 4.1145 1 3.1715 1.586 2.586C2.1715 2 3.1145 2 5 2H7C8.8855 2 9.8285 2 10.414 2.586C11 3.1715 11 4.1145 11 6V7C11 8.8855 11 9.8285 10.414 10.414C9.8285 11 8.8855 11 7 11H5C3.1145 11 2.1715 11 1.586 10.414C1 9.8285 1 8.8855 1 7V6Z" stroke="#F9AD76" stroke-width="0.75625"/>
<path id="Vector_2" d="M3.5 2V1.25M8.5 2V1.25M1.25 4.5H10.75" stroke="#F9AD76" stroke-width="0.75625" stroke-linecap="round"/>
<path id="Vector_3" d="M9 8.5C9 8.63261 8.94732 8.75979 8.85355 8.85355C8.75979 8.94732 8.63261 9 8.5 9C8.36739 9 8.24021 8.94732 8.14645 8.85355C8.05268 8.75979 8 8.63261 8 8.5C8 8.36739 8.05268 8.24021 8.14645 8.14645C8.24021 8.05268 8.36739 8 8.5 8C8.63261 8 8.75979 8.05268 8.85355 8.14645C8.94732 8.24021 9 8.36739 9 8.5ZM9 6.5C9 6.63261 8.94732 6.75979 8.85355 6.85355C8.75979 6.94732 8.63261 7 8.5 7C8.36739 7 8.24021 6.94732 8.14645 6.85355C8.05268 6.75979 8 6.63261 8 6.5C8 6.36739 8.05268 6.24021 8.14645 6.14645C8.24021 6.05268 8.36739 6 8.5 6C8.63261 6 8.75979 6.05268 8.85355 6.14645C8.94732 6.24021 9 6.36739 9 6.5ZM6.5 8.5C6.5 8.63261 6.44732 8.75979 6.35355 8.85355C6.25979 8.94732 6.13261 9 6 9C5.86739 9 5.74021 8.94732 5.64645 8.85355C5.55268 8.75979 5.5 8.63261 5.5 8.5C5.5 8.36739 5.55268 8.24021 5.64645 8.14645C5.74021 8.05268 5.86739 8 6 8C6.13261 8 6.25979 8.05268 6.35355 8.14645C6.44732 8.24021 6.5 8.36739 6.5 8.5ZM6.5 6.5C6.5 6.63261 6.44732 6.75979 6.35355 6.85355C6.25979 6.94732 6.13261 7 6 7C5.86739 7 5.74021 6.94732 5.64645 6.85355C5.55268 6.75979 5.5 6.63261 5.5 6.5C5.5 6.36739 5.55268 6.24021 5.64645 6.14645C5.74021 6.05268 5.86739 6 6 6C6.13261 6 6.25979 6.05268 6.35355 6.14645C6.44732 6.24021 6.5 6.36739 6.5 6.5ZM4 8.5C4 8.63261 3.94732 8.75979 3.85355 8.85355C3.75979 8.94732 3.63261 9 3.5 9C3.36739 9 3.24021 8.94732 3.14645 8.85355C3.05268 8.75979 3 8.63261 3 8.5C3 8.36739 3.05268 8.24021 3.14645 8.14645C3.24021 8.05268 3.36739 8 3.5 8C3.63261 8 3.75979 8.05268 3.85355 8.14645C3.94732 8.24021 4 8.36739 4 8.5ZM4 6.5C4 6.63261 3.94732 6.75979 3.85355 6.85355C3.75979 6.94732 3.63261 7 3.5 7C3.36739 7 3.24021 6.94732 3.14645 6.85355C3.05268 6.75979 3 6.63261 3 6.5C3 6.36739 3.05268 6.24021 3.14645 6.14645C3.24021 6.05268 3.36739 6 3.5 6C3.63261 6 3.75979 6.05268 3.85355 6.14645C3.94732 6.24021 4 6.36739 4 6.5Z" fill="#F9AD76"/>
</g>
</g>
<defs>
<clipPath id="clip0_2576_3061">
<rect width="12" height="12" fill="white"/>
</clipPath>
</defs>
</svg>
