<svg width="45" height="45" viewBox="0 0 45 45" fill="none" xmlns="http://www.w3.org/2000/svg">
<rect opacity="0.15" width="45" height="45" rx="11.8868" fill="#A6EDE5"/>
<rect x="7.10547" y="7.1051" width="30.7895" height="30.7895" rx="10.1887" fill="white"/>
<path d="M21.875 24.1406C21.3728 24.1406 20.8819 23.9917 20.4644 23.7127C20.0468 23.4337 19.7214 23.0372 19.5292 22.5732C19.337 22.1093 19.2868 21.5987 19.3847 21.1062C19.4827 20.6137 19.7245 20.1613 20.0796 19.8062C20.4347 19.4511 20.8871 19.2093 21.3797 19.1113C21.8722 19.0133 22.3827 19.0636 22.8467 19.2558C23.3106 19.448 23.7072 19.7734 23.9862 20.1909C24.2652 20.6085 24.4141 21.0994 24.4141 21.6016C24.4133 22.2747 24.1455 22.9201 23.6695 23.3961C23.1935 23.8721 22.5482 24.1398 21.875 24.1406ZM21.875 20.0781C21.5737 20.0781 21.2792 20.1675 21.0286 20.3349C20.7781 20.5023 20.5828 20.7402 20.4675 21.0186C20.3522 21.2969 20.3221 21.6033 20.3808 21.8988C20.4396 22.1943 20.5847 22.4657 20.7978 22.6788C21.0108 22.8919 21.2823 23.0369 21.5778 23.0957C21.8733 23.1545 22.1796 23.1243 22.458 23.009C22.7364 22.8937 22.9743 22.6985 23.1417 22.4479C23.3091 22.1974 23.3984 21.9029 23.3984 21.6016C23.398 21.1976 23.2374 20.8104 22.9518 20.5248C22.6662 20.2392 22.2789 20.0785 21.875 20.0781Z" fill="#3ACBBC"/>
<path d="M21.875 30.2344L17.5911 25.1821C17.5316 25.1063 17.4727 25.0299 17.4144 24.9531C16.6826 23.9892 16.2873 22.8118 16.2891 21.6016C16.2891 20.1201 16.8776 18.6993 17.9252 17.6517C18.9727 16.6041 20.3935 16.0156 21.875 16.0156C23.3565 16.0156 24.7773 16.6041 25.8249 17.6517C26.8724 18.6993 27.4609 20.1201 27.4609 21.6016C27.4627 22.8112 27.0676 23.9881 26.3361 24.9516L26.3356 24.9531C26.3356 24.9531 26.1833 25.1532 26.1604 25.1801L21.875 30.2344ZM18.2248 24.3412C18.2259 24.3412 18.3437 24.4976 18.3706 24.5311L21.875 28.6642L25.384 24.5255C25.4063 24.4976 25.5252 24.3402 25.5257 24.3397C26.1234 23.5521 26.4465 22.5903 26.4453 21.6016C26.4453 20.3894 25.9638 19.227 25.1067 18.3699C24.2496 17.5128 23.0871 17.0312 21.875 17.0312C20.6629 17.0312 19.5004 17.5128 18.6433 18.3699C17.7862 19.227 17.3047 20.3894 17.3047 21.6016C17.3036 22.5909 17.6265 23.5533 18.2248 24.3412Z" fill="#3ACBBC"/>
</svg>
