<svg width="22" height="22" viewBox="0 0 22 22" fill="none" xmlns="http://www.w3.org/2000/svg">
<g id="Icon-SlidersHorizontal">
<path id="Vector" d="M3.4375 7.56252H6.27344C6.42489 8.15406 6.76892 8.67836 7.25128 9.05277C7.73363 9.42719 8.32688 9.63041 8.9375 9.63041C9.54812 9.63041 10.1414 9.42719 10.6237 9.05277C11.1061 8.67836 11.4501 8.15406 11.6016 7.56252H18.5625C18.7448 7.56252 18.9197 7.49009 19.0486 7.36116C19.1776 7.23223 19.25 7.05736 19.25 6.87502C19.25 6.69268 19.1776 6.51782 19.0486 6.38889C18.9197 6.25995 18.7448 6.18752 18.5625 6.18752H11.6016C11.4501 5.59599 11.1061 5.07168 10.6237 4.69727C10.1414 4.32286 9.54812 4.11963 8.9375 4.11963C8.32688 4.11963 7.73363 4.32286 7.25128 4.69727C6.76892 5.07168 6.42489 5.59599 6.27344 6.18752H3.4375C3.25516 6.18752 3.0803 6.25995 2.95136 6.38889C2.82243 6.51782 2.75 6.69268 2.75 6.87502C2.75 7.05736 2.82243 7.23223 2.95136 7.36116C3.0803 7.49009 3.25516 7.56252 3.4375 7.56252ZM8.9375 5.50002C9.20945 5.50002 9.47529 5.58066 9.70141 5.73175C9.92753 5.88284 10.1038 6.09758 10.2078 6.34883C10.3119 6.60008 10.3391 6.87655 10.2861 7.14327C10.233 7.40999 10.1021 7.655 9.90977 7.84729C9.71747 8.03959 9.47247 8.17055 9.20575 8.2236C8.93903 8.27666 8.66256 8.24943 8.41131 8.14536C8.16006 8.04129 7.94532 7.86505 7.79423 7.63893C7.64314 7.41281 7.5625 7.14697 7.5625 6.87502C7.5625 6.51035 7.70737 6.16061 7.96523 5.90275C8.22309 5.64489 8.57283 5.50002 8.9375 5.50002ZM18.5625 14.4375H17.1016C16.9501 13.846 16.6061 13.3217 16.1237 12.9473C15.6414 12.5729 15.0481 12.3696 14.4375 12.3696C13.8269 12.3696 13.2336 12.5729 12.7513 12.9473C12.2689 13.3217 11.9249 13.846 11.7734 14.4375H3.4375C3.25516 14.4375 3.0803 14.51 2.95136 14.6389C2.82243 14.7678 2.75 14.9427 2.75 15.125C2.75 15.3074 2.82243 15.4822 2.95136 15.6112C3.0803 15.7401 3.25516 15.8125 3.4375 15.8125H11.7734C11.9249 16.4041 12.2689 16.9284 12.7513 17.3028C13.2336 17.6772 13.8269 17.8804 14.4375 17.8804C15.0481 17.8804 15.6414 17.6772 16.1237 17.3028C16.6061 16.9284 16.9501 16.4041 17.1016 15.8125H18.5625C18.7448 15.8125 18.9197 15.7401 19.0486 15.6112C19.1776 15.4822 19.25 15.3074 19.25 15.125C19.25 14.9427 19.1776 14.7678 19.0486 14.6389C18.9197 14.51 18.7448 14.4375 18.5625 14.4375ZM14.4375 16.5C14.1656 16.5 13.8997 16.4194 13.6736 16.2683C13.4475 16.1172 13.2712 15.9025 13.1672 15.6512C13.0631 15.4 13.0359 15.1235 13.0889 14.8568C13.142 14.59 13.2729 14.345 13.4652 14.1527C13.6575 13.9605 13.9025 13.8295 14.1693 13.7764C14.436 13.7234 14.7124 13.7506 14.9637 13.8547C15.2149 13.9588 15.4297 14.135 15.5808 14.3611C15.7319 14.5872 15.8125 14.8531 15.8125 15.125C15.8125 15.4897 15.6676 15.8394 15.4098 16.0973C15.1519 16.3552 14.8022 16.5 14.4375 16.5Z" fill="#4A4A6A"/>
</g>
</svg>
