<svg width="21" height="20" viewBox="0 0 21 20" fill="none" xmlns="http://www.w3.org/2000/svg">
<g id="Icon-User">
<path id="Vector" d="M20.1486 18.375C18.7208 15.9065 16.5205 14.1365 13.9527 13.2975C15.2229 12.5414 16.2097 11.3892 16.7617 10.0179C17.3136 8.64665 17.4002 7.13211 17.0081 5.70688C16.616 4.28165 15.7668 3.02454 14.5911 2.1286C13.4154 1.23266 11.9781 0.747437 10.4999 0.747437C9.0217 0.747437 7.58438 1.23266 6.40866 2.1286C5.23294 3.02454 4.38382 4.28165 3.99171 5.70688C3.59959 7.13211 3.68616 8.64665 4.23813 10.0179C4.79009 11.3892 5.77692 12.5414 7.04708 13.2975C4.47926 14.1356 2.27895 15.9056 0.851138 18.375C0.798777 18.4604 0.764047 18.5554 0.748996 18.6544C0.733945 18.7534 0.738878 18.8544 0.763504 18.9515C0.78813 19.0486 0.831951 19.1397 0.89238 19.2196C0.952809 19.2995 1.02862 19.3664 1.11535 19.4165C1.20207 19.4666 1.29795 19.4988 1.39733 19.5113C1.49671 19.5237 1.59757 19.5161 1.69397 19.489C1.79037 19.4618 1.88034 19.4156 1.95859 19.3531C2.03684 19.2906 2.10178 19.213 2.14958 19.125C3.91583 16.0725 7.0377 14.25 10.4999 14.25C13.9621 14.25 17.084 16.0725 18.8502 19.125C18.898 19.213 18.9629 19.2906 19.0412 19.3531C19.1194 19.4156 19.2094 19.4618 19.3058 19.489C19.4022 19.5161 19.5031 19.5237 19.6024 19.5113C19.7018 19.4988 19.7977 19.4666 19.8844 19.4165C19.9712 19.3664 20.047 19.2995 20.1074 19.2196C20.1678 19.1397 20.2116 19.0486 20.2363 18.9515C20.2609 18.8544 20.2658 18.7534 20.2508 18.6544C20.2357 18.5554 20.201 18.4604 20.1486 18.375ZM5.24989 7.49999C5.24989 6.46164 5.55779 5.4466 6.13467 4.58324C6.71155 3.71989 7.53149 3.04698 8.4908 2.64962C9.45011 2.25226 10.5057 2.14829 11.5241 2.35086C12.5425 2.55344 13.478 3.05345 14.2122 3.78768C14.9464 4.5219 15.4464 5.45736 15.649 6.47576C15.8516 7.49416 15.7476 8.54976 15.3503 9.50908C14.9529 10.4684 14.28 11.2883 13.4166 11.8652C12.5533 12.4421 11.5382 12.75 10.4999 12.75C9.10796 12.7485 7.77347 12.1949 6.78922 11.2107C5.80498 10.2264 5.25138 8.89192 5.24989 7.49999Z" fill="#DCDCE4"/>
</g>
</svg>
