<svg width="19" height="20" viewBox="0 0 19 20" fill="none" xmlns="http://www.w3.org/2000/svg">
<g id="Icon-Bell">
<path id="Vector" d="M18.2936 14.4944C17.7733 13.5981 16.9999 11.0622 16.9999 7.75C16.9999 5.76088 16.2097 3.85322 14.8032 2.4467C13.3967 1.04018 11.489 0.25 9.49989 0.25C7.51077 0.25 5.60311 1.04018 4.19659 2.4467C2.79007 3.85322 1.99989 5.76088 1.99989 7.75C1.99989 11.0631 1.22551 13.5981 0.705202 14.4944C0.572331 14.7222 0.501891 14.9811 0.500985 15.2449C0.50008 15.5086 0.568741 15.768 0.700045 15.9967C0.831349 16.2255 1.02065 16.4156 1.24886 16.5478C1.47708 16.6801 1.73613 16.7498 1.99989 16.75H5.82583C5.99886 17.5967 6.45904 18.3577 7.12852 18.9042C7.79799 19.4507 8.63568 19.7492 9.49989 19.7492C10.3641 19.7492 11.2018 19.4507 11.8713 18.9042C12.5407 18.3577 13.0009 17.5967 13.174 16.75H16.9999C17.2636 16.7496 17.5225 16.6798 17.7506 16.5475C17.9787 16.4151 18.1678 16.225 18.299 15.9963C18.4302 15.7676 18.4988 15.5083 18.4979 15.2446C18.4969 14.9809 18.4265 14.7222 18.2936 14.4944ZM9.49989 18.25C9.03472 18.2499 8.58103 18.1055 8.20126 17.8369C7.8215 17.5683 7.53432 17.1886 7.37927 16.75H11.6205C11.4655 17.1886 11.1783 17.5683 10.7985 17.8369C10.4188 18.1055 9.96506 18.2499 9.49989 18.25ZM1.99989 15.25C2.72177 14.0087 3.49989 11.1325 3.49989 7.75C3.49989 6.1587 4.13203 4.63258 5.25725 3.50736C6.38247 2.38214 7.90859 1.75 9.49989 1.75C11.0912 1.75 12.6173 2.38214 13.7425 3.50736C14.8678 4.63258 15.4999 6.1587 15.4999 7.75C15.4999 11.1297 16.2761 14.0059 16.9999 15.25H1.99989Z" fill="#DCDCE4"/>
</g>
</svg>
