<svg width="24" height="24" viewBox="0 0 24 24" fill="none" xmlns="http://www.w3.org/2000/svg">
<g id="ic:round-done">
<rect x="0.5" y="0.5" width="23" height="23" rx="11.5" fill="white"/>
<rect x="0.5" y="0.5" width="23" height="23" rx="11.5" stroke="#6AE5D8"/>
<path id="Vector" d="M9.95681 15.767L7.28969 13.0999C7.21995 13.0293 7.13689 12.9732 7.04532 12.935C6.95376 12.8967 6.85551 12.877 6.75627 12.877C6.65704 12.877 6.55879 12.8967 6.46722 12.935C6.37565 12.9732 6.29259 13.0293 6.22285 13.0999C6.15225 13.1696 6.09621 13.2527 6.05795 13.3442C6.0197 13.4358 6 13.534 6 13.6333C6 13.7325 6.0197 13.8308 6.05795 13.9223C6.09621 14.0139 6.15225 14.097 6.22285 14.1667L9.41576 17.3596C9.71296 17.6568 10.193 17.6568 10.4902 17.3596L18.5678 9.28969C18.6384 9.21995 18.6944 9.13689 18.7327 9.04532C18.7709 8.95375 18.7906 8.85551 18.7906 8.75627C18.7906 8.65703 18.7709 8.55879 18.7327 8.46722C18.6944 8.37565 18.6384 8.29259 18.5678 8.22285C18.498 8.15225 18.415 8.0962 18.3234 8.05795C18.2318 8.0197 18.1336 8 18.0343 8C17.9351 8 17.8369 8.0197 17.7453 8.05795C17.6537 8.0962 17.5707 8.15225 17.5009 8.22285L9.95681 15.767Z" fill="#6AE5D8"/>
</g>
</svg>
