<svg width="14" height="17" viewBox="0 0 14 17" fill="none" xmlns="http://www.w3.org/2000/svg">
<path d="M7.2632 9.11796C8.41309 9.11796 9.34526 8.18579 9.34526 7.03591C9.34526 5.88602 8.41309 4.95386 7.2632 4.95386C6.11332 4.95386 5.18115 5.88602 5.18115 7.03591C5.18115 8.18579 6.11332 9.11796 7.2632 9.11796Z" stroke="white" stroke-width="1.73504" stroke-linecap="round" stroke-linejoin="round"/>
<path d="M7.26307 1.48376C5.79056 1.48376 4.37835 2.06872 3.33712 3.10995C2.29589 4.15118 1.71094 5.56338 1.71094 7.0359C1.71094 8.34898 1.98993 9.20818 2.75196 10.159L7.26307 15.3641L11.7742 10.159C12.5362 9.20818 12.8152 8.34898 12.8152 7.0359C12.8152 5.56338 12.2303 4.15118 11.189 3.10995C10.1478 2.06872 8.73559 1.48376 7.26307 1.48376V1.48376Z" stroke="white" stroke-width="1.73504" stroke-linecap="round" stroke-linejoin="round"/>
</svg>
