<svg width="12" height="13" viewBox="0 0 12 13" fill="none" xmlns="http://www.w3.org/2000/svg">
<g id="carbon:location">
<path id="Vector" d="M5.5 7.3125C5.09826 7.3125 4.70554 7.19337 4.3715 6.97017C4.03746 6.74698 3.77711 6.42974 3.62337 6.05858C3.46963 5.68741 3.4294 5.279 3.50778 4.88497C3.58616 4.49095 3.77962 4.12902 4.06369 3.84494C4.34777 3.56087 4.7097 3.36741 5.10372 3.28903C5.49775 3.21065 5.90616 3.25088 6.27733 3.40462C6.64849 3.55836 6.96573 3.81871 7.18892 4.15275C7.41212 4.48679 7.53125 4.87951 7.53125 5.28125C7.53061 5.81977 7.31639 6.33606 6.9356 6.71685C6.55481 7.09764 6.03852 7.31186 5.5 7.3125ZM5.5 4.0625C5.25896 4.0625 5.02332 4.13398 4.8229 4.2679C4.62248 4.40182 4.46627 4.59216 4.37402 4.81486C4.28178 5.03755 4.25764 5.2826 4.30467 5.51902C4.35169 5.75543 4.46777 5.97259 4.63821 6.14304C4.80866 6.31348 5.02582 6.42956 5.26223 6.47658C5.49865 6.52361 5.7437 6.49947 5.9664 6.40723C6.18909 6.31499 6.37944 6.15877 6.51335 5.95835C6.64727 5.75793 6.71875 5.5223 6.71875 5.28125C6.71843 4.95812 6.58992 4.64831 6.36143 4.41982C6.13294 4.19133 5.82313 4.06282 5.5 4.0625Z" fill="#F9AD76"/>
<path id="Vector_2" d="M5.5 12.1875L2.07288 8.14572C2.02526 8.08503 1.97813 8.02395 1.9315 7.9625C1.34609 7.19135 1.02984 6.24943 1.03125 5.28125C1.03125 4.09606 1.50207 2.95942 2.34012 2.12137C3.17817 1.28331 4.31482 0.8125 5.5 0.8125C6.68519 0.8125 7.82184 1.28331 8.65989 2.12137C9.49794 2.95942 9.96875 4.09606 9.96875 5.28125C9.97017 6.249 9.65406 7.19048 9.06891 7.96128L9.0685 7.9625C9.0685 7.9625 8.94663 8.12256 8.92835 8.14409L5.5 12.1875ZM2.57988 7.47297C2.58069 7.47297 2.67494 7.59809 2.69647 7.62491L5.5 10.9314L8.30719 7.62044C8.32507 7.59809 8.42013 7.47216 8.42054 7.47175C8.89875 6.8417 9.15719 6.07223 9.15625 5.28125C9.15625 4.31155 8.77104 3.38157 8.08536 2.69589C7.39968 2.01021 6.4697 1.625 5.5 1.625C4.53031 1.625 3.60033 2.01021 2.91465 2.69589C2.22897 3.38157 1.84375 4.31155 1.84375 5.28125C1.8429 6.07272 2.10123 6.84264 2.57988 7.47297Z" fill="#F9AD76"/>
</g>
</svg>
