<svg width="56" height="56" viewBox="0 0 56 56" fill="none" xmlns="http://www.w3.org/2000/svg">
<g id="Frame 4">
<g clip-path="url(#clip0_2930_3057)">
<rect id="Rectangle 2" width="55.5" height="55.5" rx="8.46037" fill="#3ACBBA"/>
<circle id="Ellipse 4" cx="44.84" cy="43.317" r="29.6959" fill="#37B7A7" stroke="white" stroke-width="5.92226"/>
<g id="Ellipse 5">
<mask id="path-4-inside-1_2930_3057" fill="white">
<path d="M67.0547 45.1783C68.523 45.1783 69.7292 46.3726 69.56 47.8311C69.1847 51.0648 68.1262 54.1927 66.4431 57.0028C64.303 60.5757 61.2335 63.5009 57.5617 65.4665C53.8899 67.4321 49.7535 68.3643 45.5935 68.1639C41.4336 67.9634 37.406 66.6377 33.9402 64.3282C30.4744 62.0187 27.7003 58.8119 25.9138 55.0498C24.1272 51.2876 23.3951 47.1111 23.7956 42.9656C24.196 38.8201 25.714 34.861 28.1877 31.5104C30.1332 28.8752 32.6125 26.6941 35.4525 25.1028C36.7334 24.385 38.3 25.0385 38.8652 26.3936C39.4305 27.7487 38.7763 29.2892 37.521 30.051C35.5585 31.242 33.839 32.8081 32.4654 34.6685C30.5634 37.245 29.3961 40.2893 29.0882 43.4769C28.7803 46.6645 29.3432 49.876 30.7169 52.7689C32.0907 55.6617 34.2238 58.1275 36.8888 59.9034C39.5537 61.6793 42.6507 62.6986 45.8495 62.8528C49.0482 63.0069 52.2289 62.2901 55.0522 60.7787C57.8756 59.2673 60.2359 57.018 61.8815 54.2706C63.0697 52.2867 63.8531 50.0968 64.1968 47.827C64.4165 46.3752 65.5864 45.1783 67.0547 45.1783Z"/>
</mask>
<path d="M67.0547 45.1783C68.523 45.1783 69.7292 46.3726 69.56 47.8311C69.1847 51.0648 68.1262 54.1927 66.4431 57.0028C64.303 60.5757 61.2335 63.5009 57.5617 65.4665C53.8899 67.4321 49.7535 68.3643 45.5935 68.1639C41.4336 67.9634 37.406 66.6377 33.9402 64.3282C30.4744 62.0187 27.7003 58.8119 25.9138 55.0498C24.1272 51.2876 23.3951 47.1111 23.7956 42.9656C24.196 38.8201 25.714 34.861 28.1877 31.5104C30.1332 28.8752 32.6125 26.6941 35.4525 25.1028C36.7334 24.385 38.3 25.0385 38.8652 26.3936C39.4305 27.7487 38.7763 29.2892 37.521 30.051C35.5585 31.242 33.839 32.8081 32.4654 34.6685C30.5634 37.245 29.3961 40.2893 29.0882 43.4769C28.7803 46.6645 29.3432 49.876 30.7169 52.7689C32.0907 55.6617 34.2238 58.1275 36.8888 59.9034C39.5537 61.6793 42.6507 62.6986 45.8495 62.8528C49.0482 63.0069 52.2289 62.2901 55.0522 60.7787C57.8756 59.2673 60.2359 57.018 61.8815 54.2706C63.0697 52.2867 63.8531 50.0968 64.1968 47.827C64.4165 46.3752 65.5864 45.1783 67.0547 45.1783Z" stroke="white" stroke-width="11.8445" mask="url(#path-4-inside-1_2930_3057)"/>
</g>
<g id="Ellipse 3">
<mask id="path-5-inside-2_2930_3057" fill="white">
<path d="M23.2668 10.4305C22.0199 9.14368 22.0429 7.07437 23.4528 5.96852C26.0642 3.92032 28.9975 2.29537 32.1537 1.15536C36.337 -0.355658 40.8246 -0.983204 45.3437 -0.689148C49.8629 -0.395086 54.3191 0.81444 58.4416 2.86591C62.5641 4.91739 66.2668 7.76796 69.3245 11.2444C72.3823 14.7208 74.7312 18.7504 76.2287 23.0883C77.7261 27.4263 78.3407 31.9819 78.0352 36.4783C77.7296 40.9747 76.5102 45.318 74.4512 49.2441C72.8926 52.2161 70.8775 54.902 68.4812 57.2117C67.2004 58.446 65.1642 58.1966 64.0552 56.8059C62.931 55.3961 63.1907 53.353 64.455 52.0673C66.187 50.3062 67.6552 48.2939 68.8127 46.087C70.4805 42.9068 71.4682 39.3887 71.7157 35.7466C71.9632 32.1045 71.4654 28.4145 70.2524 24.9008C69.0395 21.387 67.1368 18.123 64.6601 15.3071C62.1833 12.4913 59.1841 10.1823 55.8449 8.5206C52.5057 6.85891 48.8961 5.87919 45.2356 5.641C41.5752 5.40281 37.9402 5.91113 34.5517 7.13505C32.1906 7.98787 29.9835 9.17571 27.9936 10.6592C26.5571 11.7302 24.5137 11.7174 23.2668 10.4305Z"/>
</mask>
<path d="M23.2668 10.4305C22.0199 9.14368 22.0429 7.07437 23.4528 5.96852C26.0642 3.92032 28.9975 2.29537 32.1537 1.15536C36.337 -0.355658 40.8246 -0.983204 45.3437 -0.689148C49.8629 -0.395086 54.3191 0.81444 58.4416 2.86591C62.5641 4.91739 66.2668 7.76796 69.3245 11.2444C72.3823 14.7208 74.7312 18.7504 76.2287 23.0883C77.7261 27.4263 78.3407 31.9819 78.0352 36.4783C77.7296 40.9747 76.5102 45.318 74.4512 49.2441C72.8926 52.2161 70.8775 54.902 68.4812 57.2117C67.2004 58.446 65.1642 58.1966 64.0552 56.8059C62.931 55.3961 63.1907 53.353 64.455 52.0673C66.187 50.3062 67.6552 48.2939 68.8127 46.087C70.4805 42.9068 71.4682 39.3887 71.7157 35.7466C71.9632 32.1045 71.4654 28.4145 70.2524 24.9008C69.0395 21.387 67.1368 18.123 64.6601 15.3071C62.1833 12.4913 59.1841 10.1823 55.8449 8.5206C52.5057 6.85891 48.8961 5.87919 45.2356 5.641C41.5752 5.40281 37.9402 5.91113 34.5517 7.13505C32.1906 7.98787 29.9835 9.17571 27.9936 10.6592C26.5571 11.7302 24.5137 11.7174 23.2668 10.4305Z" stroke="white" stroke-width="12.5213" stroke-linejoin="round" mask="url(#path-5-inside-2_2930_3057)"/>
</g>
</g>
</g>
<defs>
<clipPath id="clip0_2930_3057">
<rect width="55.5" height="55.5" rx="8.46037" fill="white"/>
</clipPath>
</defs>
</svg>
