<svg width="129" height="24" viewBox="0 0 129 24" fill="none" xmlns="http://www.w3.org/2000/svg">
<rect width="129" height="24" fill="#E7E7E7"/>
<g id="HomePage1" clip-path="url(#clip0_111_173)">
<rect width="375" height="812" transform="translate(-114.845 -15)" fill="white"/>
<g id="Menu">
<g id="Rectangle 26" filter="url(#filter0_d_111_173)">
<rect x="-114.845" y="-15" width="374.769" height="54.1333" fill="white"/>
</g>
<g id="logo" clip-path="url(#clip1_111_173)">
<g id="Group">
<path id="Vector" d="M6.32631 16.8963V10.0369H9.17088V7.91252H0.979248V10.0369H3.78781V16.8963H6.32631ZM13.2824 14.1958C12.8144 13.7097 12.5803 13.1155 12.5803 12.3954C12.5803 11.6753 12.8144 11.0811 13.2824 10.6131C13.7505 10.1269 14.3447 9.89291 15.0649 9.89291C15.7849 9.89291 16.3791 10.1269 16.8471 10.6131C17.3153 11.0811 17.5493 11.6753 17.5493 12.3954C17.5493 13.1155 17.3153 13.7097 16.8471 14.1958C16.3791 14.6819 15.7849 14.916 15.0649 14.916C14.3447 14.916 13.7505 14.6819 13.2824 14.1958ZM10.0778 12.3954C10.0778 13.7457 10.5459 14.8619 11.4821 15.7801C12.4183 16.6803 13.6065 17.1303 15.0649 17.1303C16.5231 17.1303 17.7113 16.6803 18.6475 15.7801C19.5838 14.8619 20.0518 13.7457 20.0518 12.3954C20.0518 11.0811 19.5838 9.96492 18.6475 9.04674C17.7113 8.12856 16.5231 7.67847 15.0649 7.67847C13.6065 7.67847 12.4183 8.12856 11.4821 9.04674C10.5459 9.94692 10.0778 11.0631 10.0778 12.3954ZM29.8277 16.8963V7.91252H27.2893V11.7653C26.8752 11.9993 26.3531 12.1073 25.7229 12.1073C24.5167 12.1073 24.0306 11.6213 24.0306 10.325V7.91252H21.4922V10.577C21.4922 13.0255 22.7703 14.2498 25.3268 14.2498C26.065 14.2498 26.7131 14.1418 27.2893 13.9437V16.8963H29.8277ZM34.8534 16.8963V13.0255L38.4001 16.8963H41.6768L37.158 11.9633L41.0647 7.91252H37.9501L34.8534 11.1892V7.91252H32.3149V16.8963H34.8534ZM51.4683 14.934C51.0542 14.934 50.8382 14.6999 50.8382 14.2498V11.2072C50.8382 10.109 50.4422 9.24478 49.65 8.61465C48.8758 7.98453 47.8316 7.67847 46.5533 7.67847C45.2391 7.67847 44.1409 7.91252 43.2227 8.39861V10.523C44.0689 10.0189 44.9871 9.76689 45.9413 9.76689C47.5255 9.76689 48.3178 10.325 48.3178 11.4592V11.7293C47.5976 11.3512 46.7334 11.1712 45.7253 11.1712C44.7531 11.1712 43.9249 11.4232 43.2227 11.9273C42.5206 12.4314 42.1786 13.1696 42.1786 14.1237C42.1786 15.9421 43.5467 17.1303 45.4911 17.1303C46.7694 17.1303 47.7956 16.7162 48.5877 15.9061C48.9299 16.6803 49.596 17.0584 50.6221 17.0584C51.2163 17.0584 51.6664 16.9323 51.9905 16.6803V14.8259C51.8645 14.8979 51.6844 14.934 51.4683 14.934ZM48.3178 14.2498C47.8496 14.8619 47.1655 15.168 46.2833 15.168C45.3471 15.168 44.681 14.7898 44.681 13.9977C44.681 13.2596 45.3651 12.8275 46.4453 12.8275C47.1835 12.8275 47.7956 13.0075 48.3178 13.3496V14.2498Z" fill="#3ACBBA"/>
<path id="Vector_2" d="M64.5554 14.3346C65.7532 14.3346 66.7243 13.3636 66.7243 12.1657C66.7243 10.9679 65.7532 9.99683 64.5554 9.99683C63.3575 9.99683 62.3865 10.9679 62.3865 12.1657C62.3865 13.3636 63.3575 14.3346 64.5554 14.3346Z" fill="#3ACBBA"/>
<path id="Vector_3" d="M79.8687 17.3471C80.9309 17.3471 81.8671 17.1311 82.7133 16.681V14.5206C82.0111 14.9347 81.201 15.1327 80.2828 15.1327C79.5086 15.1327 78.8425 14.8987 78.3024 14.4306C77.7623 13.9625 77.4922 13.3504 77.4922 12.6122C77.4922 11.8741 77.7623 11.2619 78.2844 10.8119C78.8245 10.3438 79.4906 10.1097 80.2828 10.1097C81.0209 10.1097 81.795 10.2897 82.5693 10.6498V8.48939C81.7771 8.09331 80.8949 7.89526 79.9047 7.89526C78.5544 7.89526 77.4022 8.32736 76.43 9.19152C75.4758 10.0377 74.9897 11.1719 74.9897 12.5942C74.9897 14.0165 75.4758 15.1687 76.43 16.0508C77.3842 16.915 78.5364 17.3471 79.8687 17.3471ZM89.98 8.70543C88.5577 8.70543 87.4414 9.20953 86.6313 10.2357C86.7034 9.37156 86.9734 8.70543 87.4775 8.25534C87.8555 7.91327 88.0716 7.71524 88.6478 7.49918C89.2238 7.28314 89.4578 7.19313 90.178 7.04911C90.5562 6.95908 90.8261 6.90507 91.0242 6.86907L91.9604 6.70704L92.9146 6.54501V4.18652C91.3662 4.43858 90.088 4.72664 89.0798 5.06871C88.0897 5.39277 87.2074 5.84286 86.4512 6.40097C84.9569 7.49918 84.3268 9.10151 84.3268 11.496C84.3268 13.2783 84.7589 14.7006 85.6051 15.7629C86.4512 16.8251 87.6756 17.3471 89.2598 17.3471C90.6101 17.3471 91.7263 16.915 92.6085 16.0508C93.5087 15.1867 93.9587 14.0705 93.9587 12.7202C93.9587 11.514 93.5807 10.5418 92.8426 9.80366C92.1044 9.06551 91.1502 8.70543 89.98 8.70543ZM89.2418 15.2047C87.7295 15.2047 86.8294 14.1245 86.8114 12.1801C87.3154 11.388 88.3237 10.8119 89.3318 10.8119C90.5741 10.8119 91.4563 11.622 91.4563 12.9003C91.4563 14.2505 90.538 15.2047 89.2418 15.2047ZM98.4485 14.4126C97.9803 13.9265 97.7462 13.3324 97.7462 12.6122C97.7462 11.8921 97.9803 11.2979 98.4485 10.8299C98.9165 10.3438 99.5107 10.1097 100.231 10.1097C100.951 10.1097 101.545 10.3438 102.013 10.8299C102.481 11.2979 102.715 11.8921 102.715 12.6122C102.715 13.3324 102.481 13.9265 102.013 14.4126C101.545 14.8987 100.951 15.1327 100.231 15.1327C99.5107 15.1327 98.9165 14.8987 98.4485 14.4126ZM95.2438 12.6122C95.2438 13.9625 95.7118 15.0787 96.6481 15.9969C97.5843 16.897 98.7725 17.3471 100.231 17.3471C101.689 17.3471 102.877 16.897 103.814 15.9969C104.75 15.0787 105.218 13.9625 105.218 12.6122C105.218 11.2979 104.75 10.1817 103.814 9.26354C102.877 8.34535 101.689 7.89526 100.231 7.89526C98.7725 7.89526 97.5843 8.34535 96.6481 9.26354C95.7118 10.1637 95.2438 11.2799 95.2438 12.6122ZM112.581 7.89526C111.285 7.89526 110.295 8.34535 109.629 9.22754V8.12931H107.09V20.7138H109.629V16.0149C110.331 16.897 111.303 17.3471 112.581 17.3471C113.805 17.3471 114.814 16.897 115.606 15.9969C116.416 15.0787 116.812 13.9625 116.812 12.6302C116.812 11.2799 116.416 10.1637 115.606 9.26354C114.814 8.34535 113.805 7.89526 112.581 7.89526ZM111.861 10.1097C112.563 10.1097 113.157 10.3438 113.607 10.8299C114.057 11.316 114.292 11.9101 114.292 12.6302C114.292 13.3324 114.057 13.9265 113.607 14.4126C113.157 14.8987 112.563 15.1327 111.861 15.1327C110.871 15.1327 110.043 14.5746 109.629 13.8004V11.46C110.043 10.6858 110.871 10.1097 111.861 10.1097ZM127.228 15.1507C126.814 15.1507 126.598 14.9167 126.598 14.4666V11.424C126.598 10.3258 126.202 9.46159 125.41 8.83146C124.636 8.20133 123.591 7.89526 122.313 7.89526C120.999 7.89526 119.901 8.12931 118.983 8.61542V10.7398C119.829 10.2357 120.747 9.98368 121.701 9.98368C123.285 9.98368 124.077 10.5418 124.077 11.676V11.9461C123.357 11.568 122.493 11.388 121.485 11.388C120.513 11.388 119.685 11.64 118.983 12.1441C118.28 12.6482 117.938 13.3864 117.938 14.3406C117.938 16.1589 119.307 17.3471 121.251 17.3471C122.529 17.3471 123.555 16.9331 124.348 16.1229C124.69 16.897 125.356 17.2752 126.382 17.2752C126.976 17.2752 127.426 17.1492 127.75 16.897V15.0427C127.624 15.1148 127.444 15.1507 127.228 15.1507ZM124.077 14.4666C123.609 15.0787 122.925 15.3847 122.043 15.3847C121.107 15.3847 120.441 15.0067 120.441 14.2145C120.441 13.4764 121.125 13.0443 122.205 13.0443C122.943 13.0443 123.555 13.2243 124.077 13.5664V14.4666Z" fill="#3ACBBA"/>
</g>
</g>
</g>
</g>
<defs>
<filter id="filter0_d_111_173" x="-118.315" y="-17.0821" width="381.709" height="61.0735" filterUnits="userSpaceOnUse" color-interpolation-filters="sRGB">
<feFlood flood-opacity="0" result="BackgroundImageFix"/>
<feColorMatrix in="SourceAlpha" type="matrix" values="0 0 0 0 0 0 0 0 0 0 0 0 0 0 0 0 0 0 127 0" result="hardAlpha"/>
<feOffset dy="1.38803"/>
<feGaussianBlur stdDeviation="1.73504"/>
<feComposite in2="hardAlpha" operator="out"/>
<feColorMatrix type="matrix" values="0 0 0 0 0 0 0 0 0 0 0 0 0 0 0 0 0 0 0.05 0"/>
<feBlend mode="normal" in2="BackgroundImageFix" result="effect1_dropShadow_111_173"/>
<feBlend mode="normal" in="SourceGraphic" in2="effect1_dropShadow_111_173" result="shape"/>
</filter>
<clipPath id="clip0_111_173">
<rect width="375" height="812" fill="white" transform="translate(-114.845 -15)"/>
</clipPath>
<clipPath id="clip1_111_173">
<rect width="127.699" height="22.9349" fill="white" transform="translate(0.709229 0.615356)"/>
</clipPath>
</defs>
</svg>
