<svg width="146" height="146" viewBox="0 0 146 146" fill="none" xmlns="http://www.w3.org/2000/svg">
<circle cx="73" cy="73" r="73" fill="#F6F6F9"/>
<path fill-rule="evenodd" clip-rule="evenodd" d="M47.83 86.94H85.14C85.3511 86.94 85.5568 86.9172 85.755 86.8739C85.9531 86.9172 86.1589 86.94 86.37 86.94H107.69C109.275 86.94 110.56 85.655 110.56 84.07C110.56 82.4849 109.275 81.2 107.69 81.2H105.23C103.645 81.2 102.36 79.915 102.36 78.33C102.36 76.7449 103.645 75.46 105.23 75.46H113.02C114.605 75.46 115.89 74.175 115.89 72.59C115.89 71.0049 114.605 69.72 113.02 69.72H104C105.585 69.72 106.87 68.435 106.87 66.85C106.87 65.2649 105.585 63.98 104 63.98H77.76C79.345 63.98 80.63 62.695 80.63 61.11C80.63 59.5249 79.345 58.24 77.76 58.24H54.39C52.8049 58.24 51.52 59.5249 51.52 61.11C51.52 62.695 52.8049 63.98 54.39 63.98H37.99C36.4049 63.98 35.12 65.2649 35.12 66.85C35.12 68.435 36.4049 69.72 37.99 69.72H48.24C49.825 69.72 51.11 71.0049 51.11 72.59C51.11 74.175 49.825 75.46 48.24 75.46H31.84C30.2549 75.46 28.97 76.7449 28.97 78.33C28.97 79.915 30.2549 81.2 31.84 81.2H47.83C46.2449 81.2 44.96 82.4849 44.96 84.07C44.96 85.655 46.2449 86.94 47.83 86.94ZM114.66 86.94C116.245 86.94 117.53 85.6551 117.53 84.07C117.53 82.4849 116.245 81.2 114.66 81.2C113.075 81.2 111.79 82.4849 111.79 84.07C111.79 85.6551 113.075 86.94 114.66 86.94Z" fill="#EAEAEF"/>
<path fill-rule="evenodd" clip-rule="evenodd" d="M58.4101 87.232L56.8948 87.4474C56.0803 87.5631 55.3283 86.9968 55.2151 86.1825L51.1171 56.6934C51.004 55.879 51.5725 55.1251 52.3869 55.0093L81.5123 50.8696C82.3268 50.7539 83.0788 51.3202 83.1919 52.1345L83.5441 54.6686C83.5631 54.8057 84.8212 63.9075 87.3184 81.9739C87.4438 82.8811 86.8182 83.7193 85.9212 83.8461C85.9116 83.8475 85.9019 83.8488 85.8923 83.8499L58.4101 87.232Z" fill="#F6F6F9"/>
<path d="M57.3742 89.0403L55.7055 89.2749C54.8085 89.4009 53.9793 88.776 53.8532 87.8791L49.2883 55.3983C49.1623 54.5014 49.7872 53.6721 50.6841 53.546L82.7589 49.0382C83.6558 48.9121 84.4851 49.5371 84.6112 50.434C84.6112 50.434 84.9031 52.5108 85.0035 53.2252" stroke="#DCDCE4" stroke-width="1.025" stroke-linecap="round"/>
<path d="M85.3449 55.1156L85.5499 56.395" stroke="#DCDCE4" stroke-width="1.025" stroke-linecap="round"/>
<path d="M62.9269 56.8003C62.992 56.181 63.5468 55.7318 64.1661 55.7968L96.3786 59.1825C96.9979 59.2476 97.4472 59.8024 97.3821 60.4217L93.9536 93.042C93.8885 93.6613 93.3337 94.1106 92.7144 94.0455L60.5018 90.6598C59.8825 90.5947 59.4333 90.0399 59.4984 89.4206L62.9269 56.8003Z" stroke="#DCDCE4" stroke-width="1.025"/>
<path fill-rule="evenodd" clip-rule="evenodd" d="M66.9939 77.0499L71.0108 74.3406C71.6806 73.8889 72.5796 73.9922 73.1295 74.5841L76.0706 77.7505C76.2174 77.9086 76.4616 77.9259 76.6292 77.7901L82.9185 72.6939C83.6761 72.0801 84.7988 72.2589 85.3282 73.0777L89.4203 79.407L90.008 80.3877L89.7266 83.7188C89.7072 83.9487 89.502 84.1173 89.2728 84.0918L65.9181 81.497C65.696 81.4723 65.5346 81.2744 65.5551 81.0519L65.8646 77.6905L66.9939 77.0499Z" fill="#F6F6F9"/>
<path d="M66.2539 60.448C66.2953 60.0539 66.6484 59.768 67.0425 59.8095L92.731 62.5094C93.1251 62.5509 93.411 62.9039 93.3696 63.298L91.0982 84.909C91.0567 85.3031 90.7037 85.589 90.3096 85.5475L64.6211 82.8476C64.227 82.8061 63.9411 82.4531 63.9825 82.059L66.2539 60.448Z" stroke="#DCDCE4" stroke-width="1.025"/>
<circle cx="72.0331" cy="67.2394" r="2.46" transform="rotate(6 72.0331 67.2394)" fill="#EAEAEF" stroke="#DCDCE4" stroke-width="1.025"/>
<path d="M66.1691 77.6842C67.783 76.5697 71.0109 74.3407 71.0109 74.3407C71.6807 73.8889 72.5797 73.9922 73.1295 74.5842L76.0707 77.7506C76.2175 77.9086 76.4616 77.9259 76.6292 77.7901L82.9186 72.694C83.6223 72.1238 84.655 72.232 85.2252 72.9357C85.2621 72.9812 85.2965 73.0286 85.3282 73.0778C85.3282 73.0778 89.0053 78.9124 89.8645 80.2757" stroke="#DCDCE4" stroke-width="1.025" stroke-linecap="round"/>
</svg>
