<svg width="75" height="74" viewBox="0 0 75 74" fill="none" xmlns="http://www.w3.org/2000/svg">
<circle cx="37.5586" cy="37.1855" r="36.6094" fill="#B9EBE5"/>
<g clip-path="url(#clip0_666_614)">
<path d="M53.7851 39.0049V34.622H50.3932V39.7066C50.3933 40.1561 50.572 40.5871 50.8901 40.9049L55.481 45.4929V48.181H18.1707V45.4929L22.7615 40.9049C23.0796 40.5871 23.2583 40.1561 23.2584 39.7066V32.9271C23.2537 30.5454 23.8779 28.2047 25.0681 26.1413C26.2583 24.0779 27.9722 22.365 30.0369 21.1755C32.1015 19.986 34.4436 19.362 36.8267 19.3667C39.2099 19.3713 41.5496 20.0044 43.6095 21.2019V17.4139C41.9952 16.6995 40.2781 16.2442 38.5217 16.0647V12.5885H35.1299V16.063C30.9487 16.4883 27.0738 18.4479 24.2546 21.5629C21.4353 24.6779 19.8718 28.7269 19.8666 32.9271V39.0049L15.2757 43.593C14.9576 43.9107 14.7789 44.3418 14.7788 44.7912V49.8759C14.7788 50.3254 14.9575 50.7565 15.2755 51.0743C15.5936 51.3922 16.0249 51.5708 16.4747 51.5708H28.3462V53.2656C28.3462 55.5132 29.2396 57.6687 30.8298 59.2579C32.4201 60.8472 34.5769 61.74 36.8258 61.74C39.0748 61.74 41.2316 60.8472 42.8218 59.2579C44.412 57.6687 45.3054 55.5132 45.3054 53.2656V51.5708H57.1769C57.6267 51.5708 58.0581 51.3922 58.3761 51.0743C58.6941 50.7565 58.8728 50.3254 58.8728 49.8759V44.7912C58.8727 44.3418 58.694 43.9107 58.3759 43.593L53.7851 39.0049ZM41.9136 53.2656C41.9136 54.6142 41.3776 55.9075 40.4234 56.861C39.4693 57.8146 38.1752 58.3503 36.8258 58.3503C35.4765 58.3503 34.1824 57.8146 33.2282 56.861C32.2741 55.9075 31.738 54.6142 31.738 53.2656V51.5708H41.9136V53.2656Z" fill="white"/>
<path d="M19.8668 39.0049V34.622H23.2586V39.7066C23.2586 40.1561 23.0798 40.5871 22.7617 40.9049L18.1709 45.4929V48.181H55.4812V45.4929L50.8903 40.9049C50.5723 40.5871 50.3935 40.1561 50.3934 39.7066V32.9271C50.3982 30.5454 49.7739 28.2047 48.5837 26.1413C47.3936 24.078 45.6796 22.365 43.615 21.1755C41.5504 19.986 39.2082 19.362 36.8251 19.3667C34.442 19.3713 32.1023 20.0044 30.0423 21.2019V17.4139C31.6567 16.6995 33.3737 16.2442 35.1301 16.0647V12.5885H38.522V16.0631C42.7031 16.4884 46.578 18.4479 49.3973 21.5629C52.2166 24.6779 53.78 28.7269 53.7853 32.9271V39.0049L58.3761 43.593C58.6942 43.9108 58.873 44.3418 58.873 44.7913V49.8759C58.873 50.3254 58.6944 50.7565 58.3763 51.0744C58.0583 51.3922 57.6269 51.5708 57.1771 51.5708H45.3057V53.2657C45.3057 55.5132 44.4123 57.6687 42.822 59.258C41.2318 60.8472 39.075 61.7401 36.826 61.7401C34.5771 61.7401 32.4203 60.8472 30.83 59.258C29.2398 57.6687 28.3464 55.5132 28.3464 53.2657V51.5708H16.475C16.0252 51.5708 15.5938 51.3922 15.2758 51.0744C14.9577 50.7565 14.779 50.3254 14.779 49.8759V44.7913C14.7791 44.3418 14.9579 43.9108 15.2759 43.593L19.8668 39.0049ZM31.7383 53.2657C31.7383 54.6142 32.2743 55.9075 33.2284 56.861C34.1826 57.8146 35.4767 58.3503 36.826 58.3503C38.1754 58.3503 39.4695 57.8146 40.4236 56.861C41.3778 55.9075 41.9138 54.6142 41.9138 53.2657V51.5708H31.7383V53.2657Z" fill="white"/>
</g>
<defs>
<clipPath id="clip0_666_614">
<rect width="45.7899" height="49.1515" fill="white" transform="translate(14.7793 12.5886)"/>
</clipPath>
</defs>
</svg>
