<svg width="10" height="10" viewBox="0 0 10 10" fill="none" xmlns="http://www.w3.org/2000/svg">
<g clip-path="url(#clip0_2455_68)">
<path d="M4.2318 8.44884C5.10708 8.44866 5.95713 8.15565 6.6466 7.61646L8.81434 9.7842L9.51161 9.08694L7.34387 6.91919C7.88334 6.22965 8.17653 5.3794 8.17674 4.5039C8.17674 2.32876 6.40695 0.55896 4.2318 0.55896C2.05666 0.55896 0.286865 2.32876 0.286865 4.5039C0.286865 6.67904 2.05666 8.44884 4.2318 8.44884ZM4.2318 1.5452C5.86353 1.5452 7.19051 2.87217 7.19051 4.5039C7.19051 6.13563 5.86353 7.46261 4.2318 7.46261C2.60008 7.46261 1.2731 6.13563 1.2731 4.5039C1.2731 2.87217 2.60008 1.5452 4.2318 1.5452Z" fill="white"/>
</g>
<defs>
<clipPath id="clip0_2455_68">
<rect width="9.36923" height="9.36923" fill="white" transform="translate(0.286865 0.55896)"/>
</clipPath>
</defs>
</svg>
