<svg width="20" height="20" viewBox="0 0 20 20" fill="none" xmlns="http://www.w3.org/2000/svg">
<path d="M17.7631 10.7171V9.67422L19.0718 8.52909C19.3131 8.31646 19.4714 8.02539 19.5188 7.70733C19.5662 7.38926 19.4996 7.06468 19.3308 6.79095L17.7222 4.06446C17.6027 3.85742 17.4308 3.68546 17.2238 3.56582C17.0169 3.44618 16.7821 3.38308 16.543 3.38283C16.3948 3.3817 16.2475 3.40472 16.1068 3.45099L14.4504 4.00993C14.1644 3.81989 13.8661 3.64911 13.5575 3.49871L13.2099 1.78101C13.1475 1.4672 12.9768 1.1853 12.7276 0.984675C12.4784 0.784047 12.1665 0.67747 11.8466 0.6836H8.65661C8.33672 0.67747 8.02487 0.784047 7.77564 0.984675C7.52642 1.1853 7.3557 1.4672 7.29336 1.78101L6.94574 3.49871C6.63487 3.64907 6.3343 3.81985 6.04599 4.00993L4.42373 3.42373C4.28147 3.38666 4.13416 3.37285 3.98749 3.38283C3.74843 3.38308 3.51363 3.44618 3.30666 3.56582C3.09968 3.68546 2.92781 3.85742 2.80828 4.06446L1.19965 6.79095C1.04055 7.06427 0.981425 7.38441 1.03241 7.69653C1.08339 8.00865 1.24131 8.29334 1.47911 8.50183L2.76738 9.68104V10.7239L1.47911 11.869C1.23459 12.079 1.07236 12.3688 1.0212 12.687C0.970035 13.0052 1.03326 13.3312 1.19965 13.6072L2.80828 16.3337C2.92781 16.5407 3.09968 16.7127 3.30666 16.8323C3.51363 16.952 3.74843 17.0151 3.98749 17.0153C4.13564 17.0164 4.28298 16.9934 4.42373 16.9471L6.08007 16.3882C6.36604 16.5782 6.66434 16.749 6.973 16.8994L7.32063 18.6171C7.38296 18.9309 7.55368 19.2128 7.80291 19.4135C8.05214 19.6141 8.36399 19.7207 8.68388 19.7145H11.9011C12.221 19.7207 12.5329 19.6141 12.7821 19.4135C13.0313 19.2128 13.2021 18.9309 13.2644 18.6171L13.612 16.8994C13.9229 16.7491 14.2235 16.5783 14.5118 16.3882L16.1613 16.9471C16.302 16.9934 16.4494 17.0164 16.5975 17.0153C16.8366 17.0151 17.0714 16.952 17.2784 16.8323C17.4853 16.7127 17.6572 16.5407 17.7767 16.3337L19.3308 13.6072C19.4899 13.3339 19.5491 13.0137 19.4981 12.7016C19.4471 12.3895 19.2892 12.1048 19.0514 11.8963L17.7631 10.7171ZM16.543 15.6521L14.205 14.8614C13.6577 15.325 13.0322 15.6873 12.3578 15.9315L11.8739 18.3786H8.65661L8.17266 15.9588C7.50359 15.7077 6.88147 15.3459 6.33227 14.8886L3.98749 15.6521L2.37886 12.9256L4.23287 11.2897C4.10684 10.5841 4.10684 9.86176 4.23287 9.15619L2.37886 7.47257L3.98749 4.74608L6.32546 5.53676C6.87276 5.07318 7.49826 4.71081 8.17266 4.46661L8.65661 2.01958H11.8739L12.3578 4.43935C13.0269 4.69047 13.649 5.05223 14.1982 5.5095L16.543 4.74608L18.1516 7.47257L16.2976 9.10847C16.4236 9.81405 16.4236 10.5364 16.2976 11.242L18.1516 12.9256L16.543 15.6521Z" fill="white"/>
<path d="M10.265 14.2889C9.45616 14.2889 8.66545 14.049 7.9929 13.5996C7.32034 13.1502 6.79615 12.5115 6.48661 11.7642C6.17706 11.0169 6.09607 10.1946 6.25388 9.40125C6.41168 8.60792 6.80119 7.8792 7.37315 7.30723C7.94511 6.73527 8.67384 6.34576 9.46717 6.18796C10.2605 6.03016 11.0828 6.11115 11.8301 6.42069C12.5774 6.73023 13.2161 7.25443 13.6655 7.92698C14.1149 8.59953 14.3548 9.39025 14.3548 10.1991C14.3602 10.7377 14.2582 11.272 14.0546 11.7706C13.851 12.2693 13.55 12.7223 13.1691 13.1032C12.7882 13.4841 12.3352 13.7851 11.8366 13.9887C11.3379 14.1923 10.8036 14.2943 10.265 14.2889ZM10.265 7.47262C9.90469 7.46423 9.54639 7.52902 9.2118 7.66306C8.87722 7.79711 8.57329 7.99764 8.31842 8.25251C8.06355 8.50738 7.86303 8.8113 7.72898 9.14589C7.59493 9.48047 7.53015 9.83878 7.53854 10.1991C7.53015 10.5595 7.59493 10.9178 7.72898 11.2524C7.86303 11.5869 8.06355 11.8909 8.31842 12.1457C8.57329 12.4006 8.87722 12.6011 9.2118 12.7352C9.54639 12.8692 9.90469 12.934 10.265 12.9256C10.6254 12.934 10.9837 12.8692 11.3183 12.7352C11.6529 12.6011 11.9568 12.4006 12.2117 12.1457C12.4665 11.8909 12.667 11.5869 12.8011 11.2524C12.9351 10.9178 12.9999 10.5595 12.9915 10.1991C12.9999 9.83878 12.9351 9.48047 12.8011 9.14589C12.667 8.8113 12.4665 8.50738 12.2117 8.25251C11.9568 7.99764 11.6529 7.79711 11.3183 7.66306C10.9837 7.52902 10.6254 7.46423 10.265 7.47262Z" fill="white"/>
</svg>
