<svg width="24" height="24" viewBox="0 0 24 24" fill="none" xmlns="http://www.w3.org/2000/svg">
<g id="Icon-ShareNetwork">
<path id="Vector" d="M16.3126 14.8749C15.8331 14.8748 15.3585 14.9708 14.9168 15.1574C14.4752 15.344 14.0754 15.6173 13.7413 15.9612L9.59947 13.2991C9.92527 12.4636 9.92527 11.5363 9.59947 10.7008L13.7413 8.03874C14.3634 8.67602 15.2 9.05959 16.0889 9.11509C16.9777 9.17059 17.8555 8.89407 18.5521 8.33913C19.2487 7.78419 19.7144 6.99037 19.8589 6.11158C20.0035 5.23279 19.8165 4.33163 19.3344 3.58282C18.8523 2.83401 18.1093 2.2909 17.2495 2.05878C16.3896 1.82666 15.4743 1.92208 14.6808 2.32652C13.8873 2.73097 13.2723 3.41563 12.955 4.24777C12.6376 5.07991 12.6406 6.00025 12.9632 6.83034L8.82142 9.49241C8.32267 8.98037 7.68255 8.62869 6.98289 8.48234C6.28324 8.33598 5.55583 8.40159 4.89366 8.67079C4.23148 8.93998 3.66463 9.40053 3.26555 9.99356C2.86648 10.5866 2.65332 11.2851 2.65332 11.9999C2.65332 12.7147 2.86648 13.4133 3.26555 14.0063C3.66463 14.5994 4.23148 15.0599 4.89366 15.3291C5.55583 15.5983 6.28324 15.6639 6.98289 15.5176C7.68255 15.3712 8.32267 15.0195 8.82142 14.5075L12.9632 17.1696C12.6858 17.8852 12.6447 18.6709 12.8461 19.4115C13.0474 20.1522 13.4806 20.8089 14.0822 21.2855C14.6838 21.7622 15.4222 22.0337 16.1893 22.0603C16.9564 22.0869 17.7118 21.8672 18.345 21.4334C18.9782 20.9996 19.4559 20.3745 19.7081 19.6496C19.9603 18.9247 19.9738 18.1381 19.7466 17.4049C19.5194 16.6718 19.0635 16.0306 18.4455 15.5754C17.8276 15.1201 17.0801 14.8747 16.3126 14.8749ZM16.3126 3.37495C16.7391 3.37495 17.1559 3.50141 17.5105 3.73834C17.8651 3.97527 18.1415 4.31203 18.3047 4.70604C18.4679 5.10004 18.5106 5.53359 18.4274 5.95186C18.3442 6.37013 18.1389 6.75434 17.8373 7.0559C17.5357 7.35745 17.1515 7.56282 16.7333 7.64602C16.315 7.72922 15.8814 7.68651 15.4874 7.52331C15.0934 7.36011 14.7567 7.08374 14.5197 6.72915C14.2828 6.37455 14.1563 5.95766 14.1563 5.5312C14.1563 4.95933 14.3835 4.41087 14.7879 4.0065C15.1923 3.60212 15.7407 3.37495 16.3126 3.37495ZM6.25009 14.1562C5.82363 14.1562 5.40674 14.0297 5.05215 13.7928C4.69755 13.5559 4.42118 13.2191 4.25798 12.8251C4.09478 12.4311 4.05208 11.9976 4.13528 11.5793C4.21848 11.161 4.42384 10.7768 4.7254 10.4752C5.02695 10.1737 5.41116 9.96833 5.82943 9.88513C6.2477 9.80193 6.68125 9.84463 7.07525 10.0078C7.46926 10.171 7.80602 10.4474 8.04295 10.802C8.27988 11.1566 8.40634 11.5735 8.40634 11.9999C8.40634 12.5718 8.17917 13.1203 7.77479 13.5246C7.37042 13.929 6.82197 14.1562 6.25009 14.1562ZM16.3126 20.6249C15.8861 20.6249 15.4692 20.4985 15.1146 20.2616C14.7601 20.0246 14.4837 19.6879 14.3205 19.2939C14.1573 18.8999 14.1146 18.4663 14.1978 18.048C14.281 17.6298 14.4863 17.2456 14.7879 16.944C15.0895 16.6424 15.4737 16.4371 15.8919 16.3539C16.3102 16.2707 16.7438 16.3134 17.1378 16.4766C17.5318 16.6398 17.8685 16.9162 18.1055 17.2708C18.3424 17.6253 18.4688 18.0422 18.4688 18.4687C18.4688 19.0406 18.2417 19.589 17.8373 19.9934C17.4329 20.3978 16.8845 20.6249 16.3126 20.6249Z" fill="white"/>
</g>
</svg>
