<svg width="142" height="142" viewBox="0 0 142 142" fill="none" xmlns="http://www.w3.org/2000/svg">
<path d="M117.706 0.286011H23.8112C10.8732 0.286011 0.384888 10.7743 0.384888 23.7123V117.608C0.384888 130.546 10.8732 141.034 23.8112 141.034H117.706C130.644 141.034 141.133 130.546 141.133 117.608V23.7123C141.133 10.7743 130.644 0.286011 117.706 0.286011Z" fill="#3ACBBA"/>
<path d="M40.9157 58.79C40.3407 57.8864 39.8068 56.6541 39.3139 55.0933C38.821 53.5325 38.5745 51.8896 38.5745 50.1645C38.5745 46.9608 39.2728 44.6606 40.6693 43.2641C42.148 41.8676 44.0373 41.1694 46.3375 41.1694H100.062C100.637 42.073 101.171 43.3052 101.664 44.866C102.157 46.4268 102.403 48.0698 102.403 49.7948C102.403 52.9986 101.664 55.2987 100.185 56.6952C98.7885 58.0917 96.9402 58.79 94.6401 58.79H80.9625V115.718C80.0589 115.964 78.6214 116.211 76.6498 116.457C74.7604 116.704 72.871 116.827 70.9817 116.827C69.0923 116.827 67.4082 116.663 65.9296 116.334C64.5331 116.088 63.342 115.595 62.3562 114.856C61.3704 114.116 60.6311 113.089 60.1382 111.775C59.6453 110.461 59.3989 108.736 59.3989 106.6V58.79H40.9157Z" fill="url(#paint0_linear_2173_1626)"/>
<path d="M70.7587 25.319C70.0844 25.319 69.4251 25.519 68.8644 25.8937C68.3037 26.2683 67.8667 26.8008 67.6086 27.4239C67.3505 28.0469 67.283 28.7325 67.4146 29.3939C67.5461 30.0553 67.8709 30.6629 68.3477 31.1397C68.8246 31.6166 69.4321 31.9413 70.0935 32.0729C70.755 32.2044 71.4405 32.1369 72.0636 31.8788C72.6866 31.6208 73.2191 31.1837 73.5938 30.623C73.9684 30.0623 74.1684 29.4031 74.1684 28.7287C74.1674 27.8247 73.8078 26.958 73.1686 26.3188C72.5294 25.6796 71.6627 25.32 70.7587 25.319ZM70.7587 30.2786C70.4522 30.2786 70.1526 30.1877 69.8977 30.0174C69.6428 29.8471 69.4442 29.605 69.3269 29.3218C69.2096 29.0386 69.1789 28.727 69.2387 28.4263C69.2985 28.1257 69.4461 27.8495 69.6628 27.6328C69.8796 27.416 70.1557 27.2684 70.4564 27.2086C70.757 27.1488 71.0686 27.1795 71.3518 27.2968C71.635 27.4141 71.8771 27.6128 72.0474 27.8677C72.2177 28.1225 72.3086 28.4222 72.3086 28.7287C72.3086 29.1398 72.1453 29.534 71.8547 29.8246C71.564 30.1153 71.1698 30.2786 70.7587 30.2786ZM70.7587 21.5994C68.8685 21.6014 67.0564 22.3532 65.7198 23.6898C64.3832 25.0263 63.6314 26.8385 63.6294 28.7287C63.6294 34.7236 69.9559 39.2212 70.2256 39.4095C70.3819 39.5189 70.568 39.5776 70.7587 39.5776C70.9495 39.5776 71.1356 39.5189 71.2919 39.4095C72.4901 38.5265 73.5864 37.5128 74.5605 36.3873C76.7373 33.8874 77.8881 31.2372 77.8881 28.7287C77.886 26.8385 77.1342 25.0263 75.7977 23.6898C74.4611 22.3532 72.6489 21.6014 70.7587 21.5994Z" fill="url(#paint1_linear_2173_1626)"/>
<circle cx="70.7588" cy="28.4474" r="2.95912" fill="#3ACBBA"/>
<defs>
<linearGradient id="paint0_linear_2173_1626" x1="70.8566" y1="41.7294" x2="70.8566" y2="118.884" gradientUnits="userSpaceOnUse">
<stop stop-color="white"/>
<stop offset="1" stop-color="#57DCCC"/>
</linearGradient>
<linearGradient id="paint1_linear_2173_1626" x1="70.7587" y1="9.07954" x2="70.7587" y2="39.5776" gradientUnits="userSpaceOnUse">
<stop stop-color="#57DACA"/>
<stop offset="0.604167" stop-color="white"/>
</linearGradient>
</defs>
</svg>
