<svg width="20" height="20" viewBox="0 0 20 20" fill="none" xmlns="http://www.w3.org/2000/svg">
<g id="Component 2">
<path id="Star 2" d="M8.95188 3.24994C9.28008 2.23226 10.7199 2.23226 11.0481 3.24993L11.9869 6.16073C12.1338 6.61649 12.5585 6.92503 13.0374 6.92398L16.0958 6.91729C17.1651 6.91496 17.61 8.28432 16.7436 8.91094L14.2653 10.7032C13.8773 10.9838 13.7151 11.4831 13.8641 11.9382L14.8155 14.8448C15.1482 15.8611 13.9833 16.7074 13.1196 16.077L10.6493 14.2739C10.2625 13.9916 9.73754 13.9916 9.35074 14.2739L6.88036 16.077C6.01666 16.7074 4.85181 15.8611 5.18446 14.8449L6.13592 11.9382C6.2849 11.4831 6.12269 10.9838 5.73466 10.7032L3.25642 8.91094C2.38998 8.28432 2.83491 6.91496 3.90419 6.91729L6.96261 6.92398C7.44148 6.92503 7.86615 6.61649 8.01313 6.16073L8.95188 3.24994Z" fill="#8BE5DB"/>
</g>
</svg>
