<svg width="177" height="23" viewBox="0 0 177 23" fill="none" xmlns="http://www.w3.org/2000/svg">
<g id="LogoTextLong">
<path d="M7.42979 17.6604V8.12922H11.3823V5.17732H0V8.12922H3.90252V17.6604H7.42979Z" fill="#3ACBBA"/>
<path d="M17.0954 13.908C16.445 13.2325 16.1198 12.407 16.1198 11.4063C16.1198 10.4057 16.445 9.58016 17.0954 8.92974C17.7458 8.2543 18.5714 7.92909 19.572 7.92909C20.5726 7.92909 21.3982 8.2543 22.0486 8.92974C22.699 9.58016 23.0242 10.4057 23.0242 11.4063C23.0242 12.407 22.699 13.2325 22.0486 13.908C21.3982 14.5834 20.5726 14.9086 19.572 14.9086C18.5714 14.9086 17.7458 14.5834 17.0954 13.908ZM12.6425 11.4063C12.6425 13.2825 13.2929 14.8335 14.5938 16.1094C15.8946 17.3602 17.5457 17.9856 19.572 17.9856C21.5983 17.9856 23.2494 17.3602 24.5502 16.1094C25.851 14.8335 26.5015 13.2825 26.5015 11.4063C26.5015 9.58016 25.851 8.02916 24.5502 6.75333C23.2494 5.47751 21.5983 4.85211 19.572 4.85211C17.5457 4.85211 15.8946 5.47751 14.5938 6.75333C13.2929 8.00414 12.6425 9.55514 12.6425 11.4063Z" fill="#3ACBBA"/>
<path d="M40.0852 17.6604V5.17732H36.558V10.5308C35.9826 10.856 35.2571 11.0061 34.3815 11.0061C32.7055 11.0061 32.03 10.3306 32.03 8.52948V5.17732H28.5028V8.87971C28.5028 12.2819 30.2789 13.983 33.8312 13.983C34.8569 13.983 35.7574 13.8329 36.558 13.5577V17.6604H40.0852Z" fill="#3ACBBA"/>
<path d="M47.0684 17.6604V12.2819L51.9966 17.6604H56.5496L50.2705 10.8059L55.699 5.17732H51.3712L47.0684 9.73026V5.17732H43.5412V17.6604H47.0684Z" fill="#3ACBBA"/>
<path d="M70.155 14.9336C69.5796 14.9336 69.2794 14.6084 69.2794 13.983V9.75527C69.2794 8.22929 68.7291 7.02851 67.6284 6.15295C66.5527 5.27738 65.1018 4.85211 63.3256 4.85211C61.4994 4.85211 59.9734 5.17732 58.6976 5.85275V8.80466C59.8734 8.10421 61.1492 7.75398 62.4751 7.75398C64.6765 7.75398 65.7772 8.52948 65.7772 10.1055V10.4807C64.7765 9.9554 63.5758 9.70524 62.1749 9.70524C60.824 9.70524 59.6733 10.0555 58.6976 10.7559C57.722 11.4564 57.2467 12.482 57.2467 13.8079C57.2467 16.3345 59.1479 17.9856 61.8497 17.9856C63.6258 17.9856 65.0517 17.4102 66.1524 16.2845C66.6277 17.3602 67.5533 17.8855 68.9793 17.8855C69.8048 17.8855 70.4302 17.7104 70.8805 17.3602V14.7835C70.7054 14.8836 70.4552 14.9336 70.155 14.9336ZM65.7772 13.983C65.1268 14.8335 64.1762 15.2588 62.9504 15.2588C61.6495 15.2588 60.7239 14.7335 60.7239 13.6328C60.7239 12.6071 61.6745 12.0067 63.1755 12.0067C64.2012 12.0067 65.0517 12.2569 65.7772 12.7322V13.983Z" fill="#3ACBBA"/>
<path d="M88.3395 14.1009C90.0039 14.1009 91.3532 12.7516 91.3532 11.0872C91.3532 9.42274 90.0039 8.07345 88.3395 8.07345C86.6751 8.07345 85.3258 9.42274 85.3258 11.0872C85.3258 12.7516 86.6751 14.1009 88.3395 14.1009Z" fill="#3ACBBA"/>
<path d="M109.618 18.2868C111.094 18.2868 112.395 17.9866 113.57 17.3612V14.3593C112.595 14.9346 111.469 15.2098 110.193 15.2098C109.117 15.2098 108.192 14.8846 107.441 14.2342C106.691 13.5838 106.316 12.7332 106.316 11.7076C106.316 10.6819 106.691 9.83134 107.416 9.20594C108.167 8.55552 109.092 8.23031 110.193 8.23031C111.219 8.23031 112.294 8.48047 113.37 8.98079V5.97886C112.269 5.4285 111.044 5.15332 109.668 5.15332C107.792 5.15332 106.191 5.75371 104.84 6.95449C103.514 8.13025 102.838 9.70626 102.838 11.6825C102.838 13.6588 103.514 15.2598 104.84 16.4856C106.166 17.6864 107.767 18.2868 109.618 18.2868Z" fill="#3ACBBA"/>
<path d="M123.667 6.27905C121.691 6.27905 120.14 6.9795 119.014 8.40542C119.114 7.20465 119.49 6.27905 120.19 5.65365C120.716 5.17834 121.016 4.90316 121.816 4.60297C122.617 4.30278 122.942 4.1777 123.943 3.97757C124.468 3.85249 124.843 3.77744 125.118 3.72741L126.419 3.50226L127.745 3.27711V0C125.594 0.350226 123.818 0.750485 122.417 1.22579C121.041 1.67608 119.815 2.30148 118.764 3.07699C116.688 4.60297 115.812 6.82941 115.812 10.1566C115.812 12.6331 116.413 14.6094 117.588 16.0854C118.764 17.5613 120.465 18.2868 122.667 18.2868C124.543 18.2868 126.094 17.6864 127.32 16.4856C128.571 15.2849 129.196 13.7339 129.196 11.8576C129.196 10.1816 128.671 8.8307 127.645 7.80504C126.619 6.77937 125.293 6.27905 123.667 6.27905ZM122.642 15.3099C120.54 15.3099 119.29 13.8089 119.265 11.1072C119.965 10.0065 121.366 9.20594 122.767 9.20594C124.493 9.20594 125.719 10.3317 125.719 12.1078C125.719 13.984 124.443 15.3099 122.642 15.3099Z" fill="#3ACBBA"/>
<path d="M135.434 14.2092C134.784 13.5337 134.459 12.7082 134.459 11.7076C134.459 10.7069 134.784 9.88137 135.434 9.23096C136.085 8.55552 136.91 8.23031 137.911 8.23031C138.912 8.23031 139.737 8.55552 140.388 9.23096C141.038 9.88137 141.363 10.7069 141.363 11.7076C141.363 12.7082 141.038 13.5337 140.388 14.2092C139.737 14.8846 138.912 15.2098 137.911 15.2098C136.91 15.2098 136.085 14.8846 135.434 14.2092ZM130.982 11.7076C130.982 13.5838 131.632 15.1348 132.933 16.4106C134.234 17.6614 135.885 18.2868 137.911 18.2868C139.937 18.2868 141.588 17.6614 142.889 16.4106C144.19 15.1348 144.84 13.5838 144.84 11.7076C144.84 9.88137 144.19 8.33037 142.889 7.05455C141.588 5.77873 139.937 5.15332 137.911 5.15332C135.885 5.15332 134.234 5.77873 132.933 7.05455C131.632 8.30536 130.982 9.85636 130.982 11.7076Z" fill="#3ACBBA"/>
<path d="M155.072 5.15332C153.271 5.15332 151.895 5.77873 150.969 7.00452V5.47853H147.442V22.9648H150.969V16.4356C151.945 17.6614 153.296 18.2868 155.072 18.2868C156.773 18.2868 158.174 17.6614 159.275 16.4106C160.4 15.1348 160.951 13.5838 160.951 11.7326C160.951 9.85636 160.4 8.30536 159.275 7.05455C158.174 5.77873 156.773 5.15332 155.072 5.15332ZM154.071 8.23031C155.047 8.23031 155.873 8.55552 156.498 9.23096C157.123 9.90639 157.449 10.7319 157.449 11.7326C157.449 12.7082 157.123 13.5337 156.498 14.2092C155.873 14.8846 155.047 15.2098 154.071 15.2098C152.696 15.2098 151.545 14.4343 150.969 13.3586V10.1065C151.545 9.03083 152.696 8.23031 154.071 8.23031Z" fill="#3ACBBA"/>
<path d="M175.424 15.2348C174.849 15.2348 174.548 14.9096 174.548 14.2842V10.0565C174.548 8.5305 173.998 7.32973 172.897 6.45416C171.822 5.5786 170.371 5.15332 168.595 5.15332C166.768 5.15332 165.242 5.47853 163.967 6.15397V9.10587C165.142 8.40542 166.418 8.0552 167.744 8.0552C169.945 8.0552 171.046 8.8307 171.046 10.4067V10.782C170.046 10.2566 168.845 10.0065 167.444 10.0065C166.093 10.0065 164.942 10.3567 163.967 11.0571C162.991 11.7576 162.516 12.7832 162.516 14.1091C162.516 16.6357 164.417 18.2868 167.119 18.2868C168.895 18.2868 170.321 17.7114 171.421 16.5857C171.897 17.6614 172.822 18.1867 174.248 18.1867C175.074 18.1867 175.699 18.0116 176.15 17.6614V15.0847C175.974 15.1848 175.724 15.2348 175.424 15.2348ZM171.046 14.2842C170.396 15.1348 169.445 15.56 168.219 15.56C166.919 15.56 165.993 15.0347 165.993 13.934C165.993 12.9083 166.944 12.3079 168.445 12.3079C169.47 12.3079 170.321 12.5581 171.046 13.0334V14.2842Z" fill="#3ACBBA"/>
</g>
</svg>
